<?xml version="1.0" encoding="utf-8"?>
<!-- Generator: Adobe Illustrator 26.0.0, SVG Export Plug-In . SVG Version: 6.00 Build 0)  -->
<svg version="1.1" id="Capa_1" xmlns="http://www.w3.org/2000/svg" xmlns:xlink="http://www.w3.org/1999/xlink" x="0px" y="0px"
	 viewBox="0 0 203 203" style="enable-background:new 0 0 203 203;" xml:space="preserve">
<style type="text/css">
	.st0{fill:#fff;}
</style>
<g>
	<g>
		<g>
			<g>
				<path class="st0" d="M100.9,0C44.9,0.3-0.3,46,0,102C0.3,158.1,46,203.3,102,203c56.1-0.3,101.2-46,100.9-102
					C202.7,44.9,157-0.3,100.9,0z M101.9,186.4c-46.9,0.2-85.1-37.6-85.4-84.5C16.3,55,54.1,16.8,101,16.5
					c46.9-0.3,85.2,37.6,85.4,84.5C186.7,148,148.9,186.2,101.9,186.4z M117,145.9L116.6,70l-39.1,0.3l0.1,16.6l10.6-0.1l0.3,59.2
					l-11.3,0l0.1,15.9l49.1-0.3l-0.1-15.8L117,145.9z M102.1,58.8c9.6,0,15.3-6.4,15.3-14.3c-0.3-8.1-5.9-14.2-15.1-14.2
					c-9.2,0.1-15.2,6.3-15.1,14.4C87.2,52.6,93,58.9,102.1,58.8z"/>
			</g>
		</g>
	</g>
</g>
</svg>
